<?xml version="1.0" encoding="UTF-8" standalone="no"?>
<!-- Created with Inkscape (http://www.inkscape.org/) -->

<svg
   xmlns:osb="http://www.openswatchbook.org/uri/2009/osb"
   xmlns:dc="http://purl.org/dc/elements/1.1/"
   xmlns:cc="http://creativecommons.org/ns#"
   xmlns:rdf="http://www.w3.org/1999/02/22-rdf-syntax-ns#"
   xmlns:svg="http://www.w3.org/2000/svg"
   xmlns="http://www.w3.org/2000/svg"
   xmlns:xlink="http://www.w3.org/1999/xlink"
   xmlns:sodipodi="http://sodipodi.sourceforge.net/DTD/sodipodi-0.dtd"
   xmlns:inkscape="http://www.inkscape.org/namespaces/inkscape"
   width="49"
   height="51"
   viewBox="0 0 12.964584 13.49375"
   version="1.1"
   id="svg822"
   inkscape:version="0.92.4 (5da689c313, 2019-01-14)"
   sodipodi:docname="logo.svg">
  <defs
     id="defs816">
    <linearGradient
       id="linearGradient2529"
       osb:paint="solid">
      <stop
         style="stop-color:#000000;stop-opacity:1;"
         offset="0"
         id="stop2527" />
    </linearGradient>
  </defs>
  <sodipodi:namedview
     id="base"
     pagecolor="#ffffff"
     bordercolor="#666666"
     borderopacity="1.0"
     inkscape:pageopacity="0.0"
     inkscape:pageshadow="2"
     inkscape:zoom="5.12"
     inkscape:cx="53.992765"
     inkscape:cy="22.415287"
     inkscape:document-units="px"
     inkscape:current-layer="layer1"
     showgrid="false"
     showborder="false"
     units="px"
     inkscape:window-width="1366"
     inkscape:window-height="713"
     inkscape:window-x="0"
     inkscape:window-y="27"
     inkscape:window-maximized="1"
     inkscape:pagecheckerboard="true"
     inkscape:snap-others="false"
     inkscape:object-nodes="false"
     inkscape:snap-nodes="false"
     inkscape:snap-global="false" />
  <metadata
     id="metadata819">
    <rdf:RDF>
      <cc:Work
         rdf:about="">
        <dc:format>image/svg+xml</dc:format>
        <dc:type
           rdf:resource="http://purl.org/dc/dcmitype/StillImage" />
        <dc:title></dc:title>
      </cc:Work>
    </rdf:RDF>
  </metadata>
  <g
     inkscape:label="Layer 1"
     inkscape:groupmode="layer"
     id="layer1"
     transform="translate(0,-283.50625)">
    <g
       id="g2561"
       transform="translate(0.33156493,-0.32851148)">
      <path
         d="m 5.7558594,284.0332 a 0.46225461,0.46225461 0 0 0 -0.4277344,0.51563 l 0.3046875,2.52148 a 0.46225461,0.46225461 0 0 0 -0.8164063,0.008 l -2.3339843,-1.60546 a 0.46225461,0.46225461 0 0 0 -0.6015625,0.69531 l 1.7226562,1.85937 a 0.46225461,0.46225461 0 0 0 -0.65625,0.48828 l -2.82617185,0.0762 a 0.46225461,0.46225461 0 0 0 -0.078125,0.91601 l 2.48632815,0.49024 a 0.46225461,0.46225461 0 0 0 -0.25,0.78125 l -2.24609378,1.73437 a 0.46225461,0.46225461 0 0 0 0.47851563,0.78321 L 2.8007812,292.23047 A 0.46225461,0.46225461 0 0 0 3.0625,293.00391 l -0.8007812,2.72656 a 0.46225461,0.46225461 0 0 0 0.8476562,0.35547 L 4.3359375,293.875 a 0.46225461,0.46225461 0 0 0 0.6660156,0.4707 l 0.9472657,2.67578 A 0.46225461,0.46225461 0 0 0 6.84375,296.8125 l -0.3046875,-2.51953 a 0.46225461,0.46225461 0 0 0 0.8164063,-0.008 L 9.6875,295.89062 a 0.46225461,0.46225461 0 0 0 0.601562,-0.69531 l -1.7226558,-1.85937 a 0.46225461,0.46225461 0 0 0 0.6582032,-0.48828 l 2.8261716,-0.0762 a 0.46225461,0.46225461 0 0 0 0.07813,-0.91601 l -2.4902341,-0.49024 a 0.46225461,0.46225461 0 0 0 0.2539062,-0.78125 l 2.2460939,-1.73437 a 0.46225461,0.46225461 0 0 0 -0.478516,-0.78516 l -2.2910154,1.06836 A 0.46225461,0.46225461 0 0 0 9.109375,288.35742 l 0.8007812,-2.72656 A 0.46225461,0.46225461 0 0 0 9.0625,285.27539 l -1.2246094,2.21094 A 0.46225461,0.46225461 0 0 0 7.1699219,287.01758 L 6.2226562,284.33984 A 0.46225461,0.46225461 0 0 0 5.7558594,284.0332 Z m 0.3261718,6.6211 c 0.00195,0.003 0.00716,0.008 0.00781,0.008 l 0.00781,-0.004 v 0.002 l 0.00195,0.008 0.00586,0.002 a 0.46225461,0.46225461 0 0 0 0.00195,0 0.46225461,0.46225461 0 0 0 0.00195,0 l 0.00195,0.002 -0.00586,0.008 v 0.002 a 0.46225461,0.46225461 0 0 0 0.00195,0.002 0.46225461,0.46225461 0 0 0 0.00781,0.004 0.46225461,0.46225461 0 0 0 -0.00391,0 l 0.015625,0.0176 -0.021484,-0.004 a 0.46225461,0.46225461 0 0 0 0.00195,0.006 0.46225461,0.46225461 0 0 0 -0.00195,-0.002 l 0.00195,0.0234 -0.017578,-0.0176 a 0.46225461,0.46225461 0 0 0 0,-0.002 l -0.013672,0.0234 -0.00391,-0.0254 v -0.002 a 0.46225461,0.46225461 0 0 0 0.00195,-0.002 0.46225461,0.46225461 0 0 0 -0.00195,0 l -0.025391,0.0117 0.011719,-0.0195 0.00195,-0.002 v -0.002 l -0.025391,-0.004 0.021484,-0.01 a 0.46225461,0.46225461 0 0 0 -0.00195,-0.002 0.46225461,0.46225461 0 0 0 0.00586,0 l 0.00781,-0.004 -0.00195,-0.008 v -0.002 a 0.46225461,0.46225461 0 0 0 0,-0.002 0.46225461,0.46225461 0 0 0 0.00781,0.006 h 0.00195 v -0.002 h 0.00195 l 0.00391,-0.008 a 0.46225461,0.46225461 0 0 0 0,-0.002 z"
         inkscape:href="#path1394"
         id="path2511"
         style="opacity:1;fill:#ffffff;fill-opacity:1;fill-rule:nonzero;stroke:none;stroke-width:0.26458332;stroke-linecap:round;stroke-linejoin:round;stroke-miterlimit:4;stroke-dasharray:none;stroke-dashoffset:0;stroke-opacity:1;paint-order:markers fill stroke"
         xlink:href="#path1394"
         inkscape:original="M 5.7871094 284.49414 L 6.2480469 288.30273 L 6.0273438 288.47266 L 5.3105469 287.98047 L 5.2265625 287.28906 L 5.0722656 287.81641 L 2.2207031 285.85352 L 4.8222656 288.66211 L 4.7441406 288.92969 L 3.8769531 288.95312 L 3.4042969 288.44336 L 3.5878906 288.96094 L 0.1328125 289.05469 L 3.8808594 289.79297 L 3.9746094 290.05664 L 3.2871094 290.58789 L 2.6054688 290.45312 L 3.0566406 290.76367 L 0.31640625 292.87891 L 3.78125 291.26367 L 4.0117188 291.42188 L 3.765625 292.25586 L 3.1367188 292.54883 L 3.6835938 292.5332 L 2.7050781 295.86133 L 4.5625 292.50977 L 4.8398438 292.50195 L 5.1308594 293.32422 L 4.7929688 293.93359 L 5.2285156 293.59766 L 6.3847656 296.86719 L 5.9238281 293.06055 L 6.1445312 292.89062 L 6.8613281 293.38477 L 6.9453125 294.07422 L 7.0996094 293.54883 L 9.9492188 295.50977 L 7.3496094 292.70312 L 7.4277344 292.43359 L 8.2949219 292.41016 L 8.7675781 292.91992 L 8.5839844 292.40234 L 12.039062 292.30859 L 8.2910156 291.57227 L 8.1972656 291.30664 L 8.8847656 290.77539 L 9.5664062 290.91016 L 9.1152344 290.59961 L 11.855469 288.48438 L 8.3886719 290.09961 L 8.1601562 289.94141 L 8.40625 289.10547 L 9.0351562 288.8125 L 8.4882812 288.82812 L 9.4667969 285.5 L 7.609375 288.85156 L 7.3300781 288.85938 L 7.0410156 288.03906 L 7.3789062 287.42969 L 6.9433594 287.76562 L 5.7871094 284.49414 z M 6.1914062 290.13867 L 6.3125 290.26953 L 6.4902344 290.30469 L 6.5117188 290.48438 L 6.6328125 290.61523 L 6.546875 290.77148 L 6.5683594 290.94922 L 6.4042969 291.02539 L 6.3164062 291.18359 L 6.140625 291.14844 L 5.9785156 291.22461 L 5.8574219 291.09375 L 5.6816406 291.05859 L 5.6601562 290.87891 L 5.5390625 290.74805 L 5.625 290.5918 L 5.6035156 290.41211 L 5.7675781 290.33594 L 5.8535156 290.17969 L 6.0292969 290.21484 L 6.1914062 290.13867 z M 6.0292969 290.21484 L 5.7675781 290.33594 L 5.625 290.5918 L 5.6601562 290.87891 L 5.8574219 291.09375 L 6.140625 291.14844 L 6.4042969 291.02539 L 6.546875 290.77148 L 6.5117188 290.48438 L 6.3125 290.26953 L 6.0292969 290.21484 z "
         inkscape:radius="0.46220839"
         sodipodi:type="inkscape:offset" />
      <path
         transform="matrix(0.03688331,0,0,0.03702111,14.405754,297.85258)"
         inkscape:transform-center-x="1.2305851e-06"
         d="m -120.80582,-63.279337 -177.47688,-190.892193 80.80428,227.564809 -31.3782,-258.753319 -68.3872,231.599359 126.70589,-227.779479 -191.45709,147.17083 236.39263,-109.80161 -241.39689,6.52805 255.78544,50.11673 -199.13128,-136.60823 177.47688,190.89219 -80.80428,-227.56481 31.3782,258.75333 68.3872,-231.59937 -126.70589,227.77948 191.457092,-147.17083 -236.392632,109.80162 241.396886,-6.52805 -255.785436,-50.11673 z"
         inkscape:randomized="0"
         inkscape:rounded="0"
         inkscape:flatsided="false"
         sodipodi:arg2="-2.4478674"
         sodipodi:arg1="0.89405938"
         sodipodi:r2="94.563828"
         sodipodi:r1="167.2962"
         sodipodi:cy="-193.70686"
         sodipodi:cx="-225.57547"
         sodipodi:sides="10"
         id="path1394"
         style="opacity:1;fill:#9a9a9a;fill-opacity:1;fill-rule:nonzero;stroke:#ffba0b;stroke-width:7.16016102;stroke-linecap:round;stroke-linejoin:round;stroke-miterlimit:4;stroke-dasharray:none;stroke-dashoffset:0;stroke-opacity:1;paint-order:markers fill stroke"
         sodipodi:type="star" />
    </g>
  </g>
</svg>
